# xmcd CD database file
#
# Track frame offsets:
#	150
#	15930
#	28203
#	40230
#	52953
#	66135
#	80225
#	91400
#	107413
#	118953
#	135090
#	149373
#	162728
#	173450
#
# Disc length: 2444 seconds
#
# Revision: 2
# Processed by: cddbd v1.5PL3 Copyright (c) Steve Scherf et al.
# Submitted via: CDex 1.50
#
DISCID=b5098a0e
DTITLE=Billie Jo Spears - Gold
DYEAR=1993
DGENRE=Country
TTITLE0=Blanket On The Ground
TTITLE1=What I've Got In Mind
TTITLE2=Misty Blue
TTITLE3="57 Chevrolet"
TTITLE4=It Coulda Been Me
TTITLE5=Which Way Are You Going Billy
TTITLE6=Tennessee Waltz
TTITLE7=Queen Of The Silver Dollar
TTITLE8=Silver Threads and Golden Needles
TTITLE9=I Fall To Pieces
TTITLE10=Crying Time
TTITLE11=Fever
TTITLE12=I'm So Lonesome I Could Cry
TTITLE13=I Stayed Long Enough
EXTD=TKO Records Ltd. YEAR: 1993
EXTT0=
EXTT1=
EXTT2=
EXTT3=
EXTT4=
EXTT5=
EXTT6=
EXTT7=
EXTT8=
EXTT9=
EXTT10=
EXTT11=
EXTT12=
EXTT13=
PLAYORDER=
